<svg xmlns="http://www.w3.org/2000/svg" viewBox="0 0 256 256" width="256" height="256">
	<style>
		tspan { white-space:pre }
		.shp0 { fill: #456268 } 
	</style>
	<g id="Layer">
		<path id="Layer" fill-rule="evenodd" class="shp0" d="M180.77 0.77C194.4 1.39 203.7 3.56 211.84 6.72C220.26 9.99 227.4 14.37 234.52 21.48C241.63 28.6 246.01 35.74 249.28 44.16C252.44 52.3 254.61 61.6 255.23 75.23C255.85 88.88 256 93.24 256 128C256 162.76 255.85 167.12 255.23 180.77C254.61 194.4 252.44 203.7 249.28 211.85C246.01 220.26 241.63 227.4 234.52 234.52C227.4 241.63 220.26 246.01 211.84 249.28C203.7 252.44 194.4 254.61 180.77 255.23C167.12 255.85 162.76 256 128 256C93.24 256 88.88 255.85 75.23 255.23C61.6 254.61 52.3 252.44 44.15 249.28C35.74 246.01 28.6 241.63 21.48 234.52C14.37 227.4 9.99 220.26 6.72 211.85C3.56 203.7 1.39 194.4 0.77 180.77C0.15 167.12 0 162.76 0 128C0 93.24 0.15 88.88 0.77 75.23C1.39 61.6 3.56 52.3 6.72 44.16C9.99 35.74 14.37 28.6 21.48 21.48C28.6 14.37 35.74 9.99 44.15 6.72C52.3 3.56 61.6 1.39 75.23 0.77C88.88 0.15 93.24 0 128 0C162.76 0 167.12 0.15 180.77 0.77ZM76.28 23.81C63.8 24.38 57.02 26.46 52.51 28.22C46.53 30.54 42.27 33.31 37.79 37.79C33.31 42.27 30.54 46.54 28.22 52.51C26.46 57.02 24.38 63.8 23.81 76.28C23.19 89.77 23.06 93.82 23.06 128C23.06 162.18 23.19 166.23 23.81 179.72C24.38 192.2 26.46 198.98 28.22 203.49C30.54 209.47 33.31 213.73 37.79 218.21C42.27 222.69 46.53 225.46 52.51 227.78C57.02 229.54 63.8 231.62 76.28 232.19C89.77 232.81 93.82 232.94 128 232.94C162.18 232.94 166.23 232.81 179.72 232.19C192.2 231.62 198.98 229.54 203.49 227.78C209.46 225.46 213.73 222.69 218.21 218.21C222.69 213.73 225.46 209.47 227.78 203.49C229.54 198.98 231.62 192.2 232.19 179.72C232.81 166.23 232.94 162.18 232.94 128C232.94 93.82 232.81 89.77 232.19 76.28C231.62 63.8 229.54 57.02 227.78 52.51C225.46 46.54 222.69 42.27 218.21 37.79C213.73 33.31 209.46 30.54 203.49 28.22C198.98 26.46 192.2 24.38 179.72 23.81C166.23 23.19 162.18 23.06 128 23.06C93.82 23.06 89.77 23.19 76.28 23.81ZM193.73 128C193.73 164.3 164.3 193.73 128 193.73C91.7 193.73 62.27 164.3 62.27 128C62.27 91.7 91.7 62.27 128 62.27C164.3 62.27 193.73 91.7 193.73 128ZM170.67 128C170.67 104.44 151.56 85.33 128 85.33C104.44 85.33 85.33 104.44 85.33 128C85.33 151.56 104.44 170.67 128 170.67C151.56 170.67 170.67 151.56 170.67 128ZM211.69 59.67C211.69 68.16 204.81 75.03 196.33 75.03C187.84 75.03 180.97 68.16 180.97 59.67C180.97 51.19 187.84 44.31 196.33 44.31C204.81 44.31 211.69 51.19 211.69 59.67Z" />
	</g>
</svg>