<svg xmlns="http://www.w3.org/2000/svg" viewBox="0 0 256 256" width="256" height="256">
	<style>
		tspan { white-space:pre }
		.shp0 { fill: #456268 } 
	</style>
	<g id="Layer">
		<path id="Layer" class="shp0" d="M0 128C0 180.42 31.52 225.44 76.62 245.24C76.26 236.3 76.56 225.57 78.85 215.85C81.31 205.46 95.32 146.1 95.32 146.1C95.32 146.1 91.23 137.93 91.23 125.85C91.23 106.88 102.22 92.71 115.91 92.71C127.56 92.71 133.18 101.46 133.18 111.93C133.18 123.63 125.72 141.14 121.88 157.35C118.67 170.93 128.69 182.01 142.08 182.01C166.33 182.01 182.67 150.86 182.67 113.95C182.67 85.9 163.77 64.9 129.41 64.9C90.58 64.9 66.39 93.86 66.39 126.2C66.39 137.35 69.68 145.22 74.83 151.31C77.19 154.1 77.52 155.23 76.67 158.44C76.05 160.8 74.64 166.47 74.06 168.71C73.21 171.96 70.58 173.11 67.65 171.92C49.77 164.62 41.44 145.03 41.44 123.02C41.44 86.65 72.1 43.05 132.92 43.05C181.79 43.05 213.95 78.42 213.95 116.38C213.95 166.59 186.04 204.1 144.89 204.1C131.07 204.1 118.07 196.63 113.62 188.15C113.62 188.15 106.19 217.64 104.61 223.34C101.9 233.21 96.58 243.07 91.73 250.76C103.24 254.16 115.4 256.01 128 256.01C198.69 256.01 256 198.7 256 128C256 57.31 198.69 0 128 0C57.31 0 0 57.31 0 128Z" />
	</g>
</svg>