<svg xmlns="http://www.w3.org/2000/svg" viewBox="0 0 256 180" width="256" height="180">
	<defs>
		<linearGradient id="grd1" gradientUnits="userSpaceOnUse"  x1="12794.88" y1="0.885" x2="12794.88" y2="18006.315">
			<stop offset="0" stop-color="#456268"  />
			<stop offset="100" stop-color="#bf171d"  />
		</linearGradient>
	</defs>
	<style>
		tspan { white-space:pre }
		.shp0 { fill: #ffffff } 
		.shp1 { opacity: 0.122;fill: #420000 } 
		.shp2 { fill: url(#grd1) } 
	</style>
	<g id="Layer">
		<g id="Layer">
			<path id="Layer" class="shp0" d="M101.6 123.2L170.8 87.4L101.6 51.3L101.6 123.2L101.6 123.2Z" />
			<path id="Layer" class="shp1" d="M101.6 51.3L162.3 91.8L170.8 87.4L101.6 51.3L101.6 51.3Z" />
			<path id="Layer" fill-rule="evenodd" class="shp2" d="M253.3 38.8C253.3 38.8 255.9 59.6 256 80.3L256 99.7C256 120.4 253.4 141.1 253.4 141.1C253.4 141.1 250.9 158.7 243.2 166.5C233.41 176.7 222.51 176.7 217.52 177.3C181.73 179.9 127.95 180 127.95 180C127.95 180 61.48 179.4 40.98 177.4C35.29 176.4 22.49 176.7 12.8 166.5C5.1 158.7 2.6 141.1 2.6 141.1C2.6 141.1 0 120.4 0 99.7L0 80.3C0 59.6 2.6 38.8 2.6 38.8C2.6 38.8 5.1 21.2 12.7 13.4C22.49 3.2 33.39 3.2 38.39 2.6C74.27 0 127.95 0 127.95 0L128.05 0C128.05 0 181.73 0 217.42 2.6C222.51 3.2 233.41 3.2 243.11 13.4C250.8 21.2 253.3 38.8 253.3 38.8ZM101.56 123.2L170.73 87.4L101.56 51.3L101.56 123.2Z" />
		</g>
	</g>
</svg>